<?xml version="1.0" encoding="UTF-8"?>
<svg width="325px" height="325px" viewBox="0 0 325 325" version="1.1" xmlns="http://www.w3.org/2000/svg" xmlns:xlink="http://www.w3.org/1999/xlink">
    <title>WordPress Logo</title>
    <g id="Homepage" stroke="none" stroke-width="1" fill="none" fill-rule="evenodd">
        <g id="Desktop" transform="translate(-266.000000, -245.000000)" fill-rule="nonzero" stroke="#F0E1C8">
            <g id="wordpress-seeklogo.com" transform="translate(267.405000, 246.027785)">
                <path d="M23.1818182,161.395531 C23.1818182,216.157488 55.036084,263.482539 101.227273,285.909091 L35.1709744,105.090909 C27.4873745,122.297147 23.1818182,141.33826 23.1818182,161.395531 L23.1818182,161.395531 Z M254.970989,154.531519 C254.970989,137.435 248.817871,125.595101 243.540378,116.379564 C236.514273,104.984517 229.928615,95.334657 229.928615,83.9396097 C229.928615,71.2231687 239.59215,59.3859021 253.203912,59.3859021 C253.818432,59.3859021 254.401304,59.4622376 255,59.4964569 C230.340054,36.9485303 197.485622,23.1818182 161.400342,23.1818182 C112.977177,23.1818182 70.3748135,47.9776935 45.5909091,85.5347583 C48.842857,85.632152 51.9075476,85.7005907 54.5106883,85.7005907 C69.0086261,85.7005907 91.4504951,83.9448742 91.4504951,83.9448742 C98.9223266,83.505287 99.8032274,94.4581148 92.3393081,95.3399215 C92.3393081,95.3399215 84.8305526,96.221728 76.4751828,96.658683 L126.950266,246.5 L157.283318,155.705506 L135.688064,96.6534185 C128.224143,96.2164635 121.153201,95.334657 121.153201,95.334657 C113.684007,94.897702 114.559633,83.5000225 122.028827,83.9396097 C122.028827,83.9396097 144.919059,85.6953262 158.538734,85.6953262 C173.034034,85.6953262 195.47854,83.9396097 195.47854,83.9396097 C202.955647,83.5000225 203.83391,94.4528503 196.367354,95.334657 C196.367354,95.334657 188.842773,96.2164635 180.503228,96.6534185 L230.593247,245.360232 L244.418641,199.25096 C250.410877,180.117072 254.970989,166.37405 254.970989,154.531519 L254.970989,154.531519 Z M163.588216,173.090909 L122.090909,294.160903 C134.48115,297.81792 147.584594,299.818182 161.161749,299.818182 C177.26801,299.818182 192.713703,297.022571 207.090909,291.946611 C206.719834,291.352081 206.38297,290.720558 206.106638,290.033547 L163.588216,173.090909 L163.588216,173.090909 Z M282.875663,95.0454545 C283.470414,99.4585356 283.807265,104.195875 283.807265,109.291745 C283.807265,123.350861 281.186148,139.155174 273.29122,158.916497 L231.045455,281.272727 C272.162244,257.253861 299.818182,212.630073 299.818182,161.518475 C299.820812,137.431068 293.678558,114.780415 282.875663,95.0454545 L282.875663,95.0454545 Z M161.496045,0 C72.449411,0 0,72.4465037 0,161.496046 C0,250.556132 72.449411,323 161.496045,323 C250.540044,323 323,250.556132 323,161.496046 C323,72.4465037 250.540044,0 161.496045,0 L161.496045,0 Z" id="Shape"></path>
            </g>
        </g>
    </g>
</svg>